# xmcd
#
# Track frame offsets: 
#        150
#        17865
#        38636
#        55025
#        72682
#        88621
#        99920
#        117147
#        128576
#        145534
#
# Disc length: 2249 seconds
#
# Revision: 5
# Processed by: cddbd v1.5.2PL0 Copyright (c) Steve Scherf et al.
# Submitted via: ExactAudioCopy v0.99pb4
#
DISCID=7b08c70a
DTITLE=Omar and The Howlers - Hard Times in the Land of Plenty
DYEAR=1987
DGENRE=Blues
TTITLE0=Hard Times in the Land of Plenty
TTITLE1=Dancing in the Canebrake
TTITLE2=Border Girl
TTITLE3=Mississippi Hoo Doo Man
TTITLE4=Don't Rock Me the Wrong Way
TTITLE5=Same Old Grind
TTITLE6=Don't You Know
TTITLE7=You Ain't Foolin' Nobody
TTITLE8=Shadow Man
TTITLE9=Lee Anne
EXTD=YEAR: 1987
EXTT0=
EXTT1=
EXTT2=
EXTT3=
EXTT4=
EXTT5=
EXTT6=
EXTT7=
EXTT8=
EXTT9=
PLAYORDER=
